<?xml version="1.0" standalone="no"?>
<!DOCTYPE svg PUBLIC "-//W3C//DTD SVG 20010904//EN"
 "http://www.w3.org/TR/2001/REC-SVG-20010904/DTD/svg10.dtd">
<svg version="1.0" xmlns="http://www.w3.org/2000/svg"
 width="512.000000pt" height="512.000000pt" viewBox="0 0 512.000000 512.000000"
 preserveAspectRatio="xMidYMid meet">
<metadata>
Created by potrace 1.14, written by Peter Selinger 2001-2017
</metadata>
<g transform="translate(0.000000,512.000000) scale(0.100000,-0.100000)"
fill="#000000" stroke="none">
<path d="M2665 4400 c-11 -12 -20 -25 -19 -29 2 -14 -9 -41 -17 -41 -5 0 -6
-7 -2 -16 3 -9 0 -20 -7 -24 -7 -5 -15 -28 -17 -52 -6 -82 -4 -79 -38 -72 -16
4 -33 11 -36 17 -4 5 -14 7 -23 4 -9 -4 -16 -2 -16 3 0 5 -18 13 -40 16 -22 4
-40 10 -40 15 0 5 -11 9 -24 9 -13 0 -26 5 -28 10 -2 6 -15 12 -29 14 -13 1
-29 5 -34 8 -6 3 -26 9 -45 14 -50 11 -50 11 -52 13 -8 7 -59 14 -100 15 -27
1 -48 4 -48 8 0 4 -6 5 -14 2 -8 -3 -17 -1 -21 5 -7 12 -54 15 -79 5 -9 -3
-16 -13 -16 -21 0 -8 -4 -12 -9 -9 -5 3 -11 -1 -15 -9 -3 -8 0 -15 7 -15 7 0
8 -3 2 -8 -10 -7 -17 -27 -18 -49 0 -7 -5 -13 -10 -13 -6 0 -8 -3 -4 -6 3 -3
2 -16 -3 -29 -5 -13 -12 -43 -15 -66 -4 -24 -11 -49 -16 -56 -6 -6 -9 -20 -7
-30 3 -17 -16 -25 -37 -14 -18 10 -45 8 -45 -3 0 -7 -3 -7 -8 -1 -4 6 -27 11
-50 12 -24 1 -50 7 -56 12 -7 6 -16 8 -19 4 -4 -3 -7 -2 -7 4 0 5 -16 9 -35 8
-35 -2 -105 15 -105 26 0 3 -15 4 -32 3 -18 -2 -42 3 -54 11 -14 9 -25 10 -38
3 -11 -6 -16 -6 -13 -1 3 5 -7 10 -24 10 -17 0 -35 6 -40 14 -7 11 -9 11 -9 1
0 -7 -4 -10 -10 -7 -5 3 -10 1 -10 -5 0 -7 -6 -8 -18 -2 -9 5 -41 8 -71 5 -37
-2 -57 1 -63 9 -6 10 -11 9 -22 -4 -7 -10 -16 -15 -19 -11 -4 3 -12 1 -19 -4
-7 -5 -25 -8 -41 -7 -15 2 -25 -1 -22 -6 3 -5 -10 -12 -30 -16 -20 -3 -40 -15
-46 -25 -5 -11 -14 -17 -19 -14 -5 3 -14 -4 -20 -15 -6 -11 -15 -18 -19 -15
-5 2 -11 -5 -14 -16 -3 -12 -10 -19 -15 -16 -4 3 -15 -3 -23 -14 -26 -38 -58
-69 -70 -69 -7 0 -9 -3 -6 -7 4 -3 1 -13 -7 -22 -8 -9 -14 -18 -14 -21 1 -3
-6 -21 -15 -40 -9 -19 -18 -44 -20 -55 -2 -11 -9 -31 -17 -45 -7 -14 -12 -25
-11 -25 1 0 -1 -8 -5 -19 -4 -11 -2 -21 6 -26 9 -5 9 -9 1 -14 -6 -4 -9 -11
-6 -16 3 -5 1 -11 -4 -15 -6 -3 -4 -20 5 -41 10 -25 11 -33 3 -28 -8 4 -9 3
-5 -5 5 -7 10 -31 12 -54 8 -92 19 -127 38 -127 6 0 4 -5 -4 -10 -10 -6 -11
-10 -2 -10 6 0 12 -9 12 -21 0 -11 4 -18 10 -14 9 6 105 -86 114 -111 3 -8 12
-14 21 -14 8 0 15 -4 15 -10 0 -5 9 -10 21 -10 11 0 18 -4 15 -9 -6 -9 22 -26
37 -23 4 1 7 -2 7 -8 0 -6 3 -9 8 -8 16 4 52 -14 52 -28 0 -8 3 -13 8 -12 4 1
19 -2 33 -6 14 -4 34 -9 45 -11 10 -2 19 -4 19 -5 0 -1 14 -3 30 -5 70 -7 100
-15 103 -25 3 -7 12 -5 25 7 11 10 17 13 14 7 -9 -16 14 -24 52 -18 20 3 31 1
31 -7 0 -8 4 -8 15 1 8 7 15 8 15 3 0 -5 12 -8 28 -8 15 1 33 -4 41 -9 11 -8
13 -8 8 0 -9 15 28 25 42 11 14 -14 153 -18 169 -4 10 8 12 7 10 -4 -2 -8 3
-12 12 -10 8 2 44 6 80 7 103 6 124 8 138 17 7 5 12 4 12 -3 0 -7 8 -9 21 -5
37 12 54 13 66 3 7 -6 19 -6 30 1 11 5 25 6 33 1 7 -4 23 -4 34 0 24 10 116
25 131 21 5 -1 17 -2 25 -2 8 1 44 2 80 3 36 2 68 7 71 12 7 9 59 -21 59 -35
0 -4 -5 -11 -11 -14 -7 -5 -3 -15 10 -29 20 -21 22 -40 8 -63 -4 -6 -3 -13 3
-15 5 -1 11 -14 14 -28 2 -14 5 -25 7 -25 1 0 5 -19 11 -60 2 -11 11 -23 22
-28 15 -6 16 -10 5 -23 -10 -13 -10 -17 1 -24 11 -7 11 -11 1 -24 -8 -9 -9
-16 -3 -16 15 0 24 -32 12 -40 -7 -5 -6 -11 4 -19 11 -9 13 -18 6 -31 -5 -9
-7 -20 -4 -23 5 -5 15 -58 16 -87 0 -8 5 -21 11 -27 6 -9 6 -13 -3 -13 -10 0
-10 -3 0 -15 7 -8 10 -21 7 -29 -3 -7 -1 -18 5 -24 8 -8 7 -13 -5 -17 -9 -4
-14 -12 -11 -20 3 -7 -2 -15 -11 -19 -9 -3 -14 -10 -11 -15 3 -5 -13 -16 -37
-26 -23 -9 -53 -26 -66 -38 -13 -12 -20 -15 -16 -7 7 12 6 13 -7 3 -8 -7 -19
-9 -23 -5 -5 4 -4 1 0 -7 6 -11 4 -13 -11 -7 -10 4 -15 4 -11 0 4 -4 -1 -13
-11 -20 -13 -9 -20 -10 -31 -1 -9 7 -12 8 -8 1 6 -11 -52 -44 -79 -44 -8 0
-17 -7 -21 -16 -3 -8 -12 -13 -20 -10 -8 3 -11 1 -8 -4 3 -6 0 -10 -8 -10 -8
0 -34 -9 -58 -19 -24 -11 -47 -17 -51 -15 -5 3 -11 -1 -13 -8 -7 -17 -108 -13
-140 5 -11 6 -23 12 -27 13 -5 1 -11 3 -15 4 -5 1 -11 2 -15 1 -5 0 -8 4 -8
10 0 5 -4 8 -9 4 -5 -3 -13 0 -17 6 -4 8 -9 7 -15 -2 -6 -10 -9 -11 -9 -1 0 6
-7 12 -15 12 -8 0 -15 5 -15 11 0 5 -5 7 -10 4 -6 -3 -10 -1 -10 6 0 7 -3 9
-7 6 -3 -4 -15 1 -26 10 -15 13 -18 14 -12 3 7 -12 6 -13 -7 -3 -8 7 -18 10
-21 6 -4 -3 -7 -1 -7 5 0 7 -14 12 -31 12 -16 0 -28 4 -25 8 3 5 0 9 -7 9 -7
0 -50 15 -97 34 -47 18 -88 33 -92 31 -5 -1 -8 2 -8 6 0 4 -10 8 -21 9 -34 3
-39 15 -42 84 -2 35 -6 70 -11 77 -4 7 -2 12 4 12 22 0 -14 26 -38 27 -16 1
-26 -6 -34 -25 -6 -15 -10 -33 -9 -39 1 -7 -2 -13 -7 -13 -5 0 -7 -12 -5 -28
6 -42 -22 -54 -82 -36 -26 7 -51 11 -56 8 -5 -3 -9 0 -9 6 0 7 -6 8 -19 0 -14
-7 -21 -6 -23 2 -3 8 -14 2 -31 -16 -15 -16 -24 -33 -21 -37 3 -5 7 -40 9 -77
3 -37 7 -85 10 -107 3 -22 6 -46 7 -52 1 -7 5 -13 10 -13 4 0 8 -6 8 -14 0
-14 90 -76 111 -76 11 0 61 -30 70 -43 3 -5 8 -8 10 -6 11 6 57 -16 82 -39 15
-14 27 -22 27 -18 0 4 20 -4 45 -18 25 -15 45 -23 45 -19 0 4 4 2 8 -4 5 -7
21 -14 38 -15 16 -1 34 -5 39 -9 6 -4 21 -9 35 -11 14 -1 28 -7 31 -12 4 -4
23 -8 43 -8 20 0 36 -5 36 -10 0 -6 9 -8 20 -5 11 3 20 1 20 -5 0 -6 7 -8 15
-5 8 4 17 2 21 -4 3 -6 12 -8 20 -5 8 3 14 1 14 -5 0 -6 5 -7 10 -4 6 4 17 2
24 -4 7 -6 26 -11 42 -10 16 1 40 1 54 0 20 -1 22 -3 10 -11 -8 -5 -10 -10 -4
-10 6 0 14 3 17 7 4 3 23 8 43 10 27 3 34 0 29 -9 -4 -7 2 -2 13 11 14 18 21
20 24 10 4 -12 7 -12 21 -1 9 8 21 11 27 7 5 -3 10 -2 10 3 0 5 7 9 15 9 8 0
15 -5 15 -11 0 -6 4 -6 8 2 5 7 19 14 31 17 13 2 29 9 36 15 9 8 15 8 20 0 4
-7 12 -7 24 0 11 5 33 11 50 12 17 1 31 6 31 11 0 5 11 7 25 5 13 -3 22 -2 20
2 -3 4 4 10 15 13 11 3 20 0 20 -6 0 -7 5 -5 10 3 5 8 10 11 10 7 0 -4 9 -3
19 2 14 8 22 7 30 -3 6 -7 8 -16 4 -19 -3 -4 -8 -21 -10 -39 -2 -18 -9 -36
-16 -40 -9 -6 -9 -10 2 -17 9 -6 10 -14 5 -22 -5 -8 -9 -21 -9 -29 0 -8 -4
-21 -9 -28 -4 -7 -3 -19 3 -26 9 -10 7 -15 -6 -21 -17 -6 -17 -7 0 -16 9 -6
16 -13 13 -17 -9 -16 -14 -109 -6 -122 5 -9 5 -19 -2 -27 -7 -9 -7 -13 0 -13
6 0 9 -9 7 -20 -2 -11 -1 -20 3 -20 9 0 7 -79 -2 -101 -4 -10 -2 -20 3 -24 6
-3 8 -11 5 -17 -4 -6 -8 -46 -9 -89 -2 -42 -5 -82 -9 -87 -3 -6 0 -13 6 -15
10 -4 10 -6 1 -6 -7 -1 -10 -7 -8 -13 13 -34 12 -97 -1 -102 -8 -3 -11 -12 -8
-20 5 -12 106 -14 708 -14 l703 -1 -1 70 c-1 38 3 69 7 69 5 0 5 6 0 13 -11
18 -12 37 -2 37 6 0 5 8 -1 20 -8 14 -8 20 0 20 6 0 8 5 4 12 -11 17 -12 48
-3 48 4 0 4 12 0 28 -5 15 -7 49 -5 76 2 27 -1 55 -7 62 -7 8 -7 14 -2 14 13
0 14 128 1 136 -5 3 -8 25 -7 48 2 23 0 47 -4 52 -3 6 0 20 7 30 10 13 11 24
5 36 -8 15 -6 18 11 18 12 0 18 -4 15 -10 -3 -5 5 -21 19 -35 14 -14 21 -25
15 -25 -5 0 -4 -6 3 -14 7 -8 16 -12 20 -10 4 3 5 -5 3 -16 -2 -11 1 -20 7
-20 5 0 8 -6 5 -14 -4 -9 3 -17 16 -21 13 -4 17 -8 10 -11 -9 -4 -8 -12 4 -31
9 -14 17 -33 18 -43 1 -10 9 -26 18 -35 10 -9 15 -21 12 -26 -4 -5 -1 -9 5 -9
7 0 10 -7 6 -15 -3 -8 4 -24 16 -35 12 -11 18 -20 12 -20 -5 0 -1 -5 10 -11
15 -9 16 -13 5 -20 -11 -6 -9 -13 9 -32 12 -13 19 -26 16 -30 -4 -3 1 -18 11
-33 11 -18 13 -24 4 -19 -9 4 -8 1 1 -7 9 -7 15 -20 15 -28 -1 -8 5 -30 12
-47 7 -18 10 -33 6 -33 -4 0 -2 -5 4 -11 6 -6 9 -18 6 -25 -3 -8 0 -20 6 -28
7 -8 11 -18 10 -22 -1 -5 -1 -19 0 -32 1 -22 3 -22 117 -21 l116 2 -3 131 c-1
72 -8 147 -15 168 -7 20 -10 39 -7 42 3 3 0 12 -7 21 -7 8 -9 15 -4 15 5 0 3
4 -5 9 -12 8 -12 12 -2 25 11 13 11 16 1 16 -8 0 -11 3 -7 6 3 3 -1 23 -8 45
-8 21 -12 39 -8 39 3 0 0 6 -6 14 -9 11 -9 15 0 18 8 3 5 10 -7 23 -11 10 -18
21 -16 24 3 5 -11 61 -26 101 -3 8 -6 18 -7 23 -2 4 -4 10 -5 15 -1 4 -2 11
-1 15 1 4 -4 18 -11 30 -7 12 -11 25 -10 30 1 4 -2 7 -8 7 -5 0 -10 9 -10 19
0 11 -5 23 -11 27 -6 3 -9 15 -6 25 3 10 1 22 -4 25 -5 3 -7 10 -4 15 4 5 -1
12 -10 15 -9 4 -14 13 -11 20 3 8 2 14 -2 14 -4 0 -13 9 -20 21 -11 17 -11 20
0 13 9 -5 8 -2 -2 11 -8 11 -19 26 -25 34 -5 7 -23 27 -40 44 -16 16 -29 34
-27 39 1 4 -1 7 -5 7 -20 -3 -34 2 -28 11 3 6 2 10 -4 10 -5 0 -13 10 -17 23
-3 12 -14 29 -23 39 -23 23 -59 71 -62 83 -4 14 -26 35 -37 35 -9 0 -37 50
-34 63 1 4 -5 7 -14 7 -8 0 -12 5 -9 10 3 6 -1 13 -9 16 -9 3 -16 15 -16 26 0
11 -8 22 -20 25 -11 3 -20 12 -20 19 0 14 -20 42 -54 74 -10 10 -15 23 -11 29
3 6 2 11 -3 11 -5 0 -14 12 -20 26 -9 19 -9 24 0 18 8 -5 9 -2 4 12 -8 21 -17
59 -19 87 -1 9 -5 17 -10 17 -5 0 -2 11 7 25 9 14 13 25 9 25 -5 0 -2 4 5 9 8
5 14 25 15 45 1 20 4 36 7 36 3 0 5 12 4 28 -1 15 -3 27 -4 27 -1 0 -4 16 -5
35 -2 20 -5 40 -7 45 -2 6 1 11 5 12 14 3 36 37 37 55 0 9 6 19 13 21 9 4 9 6
0 6 -8 1 -13 15 -13 37 0 19 -4 33 -9 30 -5 -3 -16 15 -26 39 -9 25 -20 45
-25 45 -9 0 -25 39 -22 53 1 4 -2 7 -7 7 -13 0 -10 34 4 46 16 13 35 16 35 4
0 -6 7 -6 18 1 13 8 17 20 14 40 -2 16 -9 29 -14 29 -6 0 -8 7 -5 15 4 8 2 17
-3 20 -12 8 -60 106 -60 125 0 8 -9 22 -20 30 -11 8 -20 20 -20 27 0 7 -9 17
-20 23 -11 6 -20 15 -20 19 0 12 44 22 48 11 6 -16 32 17 32 39 0 28 -21 72
-31 65 -5 -3 -9 5 -9 16 0 16 -5 20 -15 16 -8 -3 -15 -1 -15 4 0 6 0 12 0 15
0 9 -40 45 -50 45 -13 0 -7 40 8 49 6 3 13 19 16 34 4 22 -3 35 -31 63 -19 19
-41 33 -49 30 -7 -3 -16 3 -19 14 -4 12 -12 17 -21 13 -9 -3 -14 0 -12 7 2 6
-19 24 -47 38 -27 15 -51 30 -53 33 -2 4 -12 4 -24 1 -14 -3 -19 -1 -14 6 3 6
-3 13 -14 17 -18 6 -24 17 -21 38 0 4 -4 7 -9 7 -6 0 -8 13 -5 30 3 17 1 30
-5 30 -6 0 -8 11 -4 26 4 14 2 29 -4 33 -5 3 -12 22 -15 42 -2 20 -8 43 -12
49 -5 9 -4 11 3 6 9 -5 9 0 2 19 -6 15 -7 31 -4 37 5 7 2 8 -6 3 -7 -4 -16 -2
-20 5 -4 7 -12 10 -16 7 -13 -8 -55 -95 -59 -122 -3 -18 -19 -50 -31 -62 -7
-7 -14 -18 -16 -25 -5 -15 -57 21 -58 40 0 7 -13 15 -30 18 -16 4 -28 9 -26
13 7 11 -98 10 -111 -1 -18 -15 -63 2 -63 24 0 10 4 17 10 13 5 -3 3 7 -5 22
-8 15 -15 34 -15 41 0 6 -5 12 -11 12 -5 0 -7 5 -4 10 3 6 2 10 -3 10 -6 0 -8
10 -4 22 3 14 1 19 -6 14 -6 -3 -12 3 -14 15 l-3 21 -20 -22z"/>
</g>
</svg>
